# xmcd
#
# Track frame offsets:
#	150
#	18212
#	33680
#	51119
#	65365
#	76314
#	92789
#	109811
#	132991
#	148794
#	164707
#	180201
#	197809
#	214545
#	225975
#	242576
#	257784
#	272400
#	288182
#	307772
#	323409
#	342570
#
# Disc length: 4788 seconds
#
# Revision: 1
# Processed by: cddbd v1.4PL0 Copyright (c) Steve Scherf et al.
# Submitted via: audiograbber 1.81.02
#
DISCID=2e12b216
DTITLE=Dixie Chicks - Country
DYEAR=1900
DGENRE=
TTITLE0=Dixie Chicks                   - Irish Medley                  
TTITLE1=Dixie Chicks - I've Only Got Myself To Blame
TTITLE2=Dixie Chicks - Landslide
TTITLE3=Dixie Chicks - Let Him Fly
TTITLE4=Dixie Chicks                   - Lil' Jack Slade               
TTITLE5=Dixie Chicks - Loving Arms
TTITLE6=Dixie Chicks - Long Time Gone
TTITLE7=Dixie Chicks                   - More Love                     
TTITLE8=Dixie Chicks                   - Once You've Loved Somebody    
TTITLE9=Dixie Chicks - Past The Point Of Rescue
TTITLE10=Dixie Chicks                   - Pink Toenails                 
TTITLE11=Dixie Chicks - Ready to Run
TTITLE12=Dixie Chicks - Sin Wagon
TTITLE13=Dixie Chicks - Somedays You Gotta Dance
TTITLE14=Dixie Chicks - Sometimes I Wake Up Crying
TTITLE15=Dixie Chicks - Stand By Your Man
TTITLE16=Dixie Chicks - There's Your Trouble
TTITLE17=Dixie Chicks - Storm Out On The Sea
TTITLE18=Dixie Chicks                   - Thunderheads                  
TTITLE19=Dixie Chicks - Tonight The Heartache's On Me
TTITLE20=Dixie Chicks - Two Of A Kind
TTITLE21=Dixie Chicks - Tortured, Tangled Hearts
EXTD=
EXTT0=
EXTT1=
EXTT2=
EXTT3=
EXTT4=
EXTT5=
EXTT6=
EXTT7=
EXTT8=
EXTT9=
EXTT10=
EXTT11=
EXTT12=
EXTT13=
EXTT14=
EXTT15=
EXTT16=
EXTT17=
EXTT18=
EXTT19=
EXTT20=
EXTT21=
PLAYORDER=
